<?xml version="1.0" encoding="UTF-8"?>
<!-- Created with Inkscape (http://www.inkscape.org/) -->
<svg width="181.44mm" height="195.57mm" version="1.1" viewBox="0 0 181.44 195.57" xmlns="http://www.w3.org/2000/svg" xmlns:cc="http://creativecommons.org/ns#" xmlns:dc="http://purl.org/dc/elements/1.1/" xmlns:rdf="http://www.w3.org/1999/02/22-rdf-syntax-ns#">
 <defs>
  <filter id="filter1952-4" x="-.011917" y="-.036771" width="1.0238" height="1.0735" color-interpolation-filters="sRGB">
   <feGaussianBlur stdDeviation="1.3439243"/>
  </filter>
  <filter id="filter1952-65" x="-.011917" y="-.036771" width="1.0238" height="1.0735" color-interpolation-filters="sRGB">
   <feGaussianBlur stdDeviation="1.3439243"/>
  </filter>
  <filter id="filter1952-6" x="-.011917" y="-.036771" width="1.0238" height="1.0735" color-interpolation-filters="sRGB">
   <feGaussianBlur stdDeviation="1.3439243"/>
  </filter>
  <filter id="filter1952-9" x="-.011917" y="-.036771" width="1.0238" height="1.0735" color-interpolation-filters="sRGB">
   <feGaussianBlur stdDeviation="1.3439243"/>
  </filter>
  <filter id="filter1952" x="-.011917" y="-.036771" width="1.0238" height="1.0735" color-interpolation-filters="sRGB">
   <feGaussianBlur stdDeviation="1.3439243"/>
  </filter>
 </defs>
 <metadata>
  <rdf:RDF>
   <cc:Work rdf:about="">
    <dc:format>image/svg+xml</dc:format>
    <dc:type rdf:resource="http://purl.org/dc/dcmitype/StillImage"/>
    <dc:title/>
   </cc:Work>
  </rdf:RDF>
 </metadata>
 <g transform="translate(144.28 -66.227)">
  <g transform="matrix(.33049 0 0 .33049 -157.01 2.9193)" fill="none" stroke="#232323">
   <path d="m133.36 372.17c-0.36096 5e-3 -0.72068 6e-3 -1.0788 4e-3 -13.854-0.0814-32.691-11.833-27.814-10.307 6.7086 2.0992 15.271-10.172 29.147-10.081 13.876 0.0901 29.371 5.1463 29.044 10.245-0.10604 1.6534-1.8805 3.3096-4.7026 4.7901" stroke-width="1.252px"/>
   <g transform="matrix(1.252 0 0 1.252 -1754.4 22.467)" stroke-width="1.5">
    <rect x="1508.3" y="231.61" width="270.66" height="87.715" ry="43.858" style="paint-order:stroke fill markers"/>
    <circle cx="1531.1" cy="273.56" r="4.4431" style="paint-order:stroke fill markers"/>
   </g>
   <g transform="matrix(1.252 0 0 1.252 -1754.4 22.467)" filter="url(#filter1952)" stroke-width="1.5">
    <rect x="1508.3" y="231.61" width="270.66" height="87.715" ry="43.858" style="paint-order:stroke fill markers"/>
    <circle cx="1531.1" cy="273.56" r="4.4431" style="paint-order:stroke fill markers"/>
   </g>
  </g>
  <g transform="matrix(.33049 0 0 .33049 -122.21 42.193)" fill="none" stroke="#232323">
   <path d="m133.36 372.17c-0.36096 5e-3 -0.72068 6e-3 -1.0788 4e-3 -13.854-0.0814-32.691-11.833-27.814-10.307 6.7086 2.0992 15.271-10.172 29.147-10.081 13.876 0.0901 29.371 5.1463 29.044 10.245-0.10604 1.6534-1.8805 3.3096-4.7026 4.7901" stroke-width="1.252px"/>
   <g transform="matrix(1.252 0 0 1.252 -1754.4 22.467)" stroke-width="1.5">
    <rect x="1508.3" y="231.61" width="270.66" height="87.715" ry="43.858" style="paint-order:stroke fill markers"/>
    <circle cx="1531.1" cy="273.56" r="4.4431" style="paint-order:stroke fill markers"/>
   </g>
   <g transform="matrix(1.252 0 0 1.252 -1754.4 22.467)" filter="url(#filter1952-9)" stroke-width="1.5">
    <rect x="1508.3" y="231.61" width="270.66" height="87.715" ry="43.858" style="paint-order:stroke fill markers"/>
    <circle cx="1531.1" cy="273.56" r="4.4431" style="paint-order:stroke fill markers"/>
   </g>
  </g>
  <g transform="matrix(.33049 0 0 .33049 -154.17 81.747)" fill="none" stroke="#232323">
   <path d="m133.36 372.17c-0.36096 5e-3 -0.72068 6e-3 -1.0788 4e-3 -13.854-0.0814-32.691-11.833-27.814-10.307 6.7086 2.0992 15.271-10.172 29.147-10.081 13.876 0.0901 29.371 5.1463 29.044 10.245-0.10604 1.6534-1.8805 3.3096-4.7026 4.7901" stroke-width="1.252px"/>
   <g transform="matrix(1.252 0 0 1.252 -1754.4 22.467)" stroke-width="1.5">
    <rect x="1508.3" y="231.61" width="270.66" height="87.715" ry="43.858" style="paint-order:stroke fill markers"/>
    <circle cx="1531.1" cy="273.56" r="4.4431" style="paint-order:stroke fill markers"/>
   </g>
   <g transform="matrix(1.252 0 0 1.252 -1754.4 22.467)" filter="url(#filter1952-6)" stroke-width="1.5">
    <rect x="1508.3" y="231.61" width="270.66" height="87.715" ry="43.858" style="paint-order:stroke fill markers"/>
    <circle cx="1531.1" cy="273.56" r="4.4431" style="paint-order:stroke fill markers"/>
   </g>
  </g>
  <g transform="matrix(.33049 0 0 .33049 -122.62 120.91)" fill="none" stroke="#232323">
   <path d="m133.36 372.17c-0.36096 5e-3 -0.72068 6e-3 -1.0788 4e-3 -13.854-0.0814-32.691-11.833-27.814-10.307 6.7086 2.0992 15.271-10.172 29.147-10.081 13.876 0.0901 29.371 5.1463 29.044 10.245-0.10604 1.6534-1.8805 3.3096-4.7026 4.7901" stroke-width="1.252px"/>
   <g transform="matrix(1.252 0 0 1.252 -1754.4 22.467)" stroke-width="1.5">
    <rect x="1508.3" y="231.61" width="270.66" height="87.715" ry="43.858" style="paint-order:stroke fill markers"/>
    <circle cx="1531.1" cy="273.56" r="4.4431" style="paint-order:stroke fill markers"/>
   </g>
   <g transform="matrix(1.252 0 0 1.252 -1754.4 22.467)" filter="url(#filter1952-65)" stroke-width="1.5">
    <rect x="1508.3" y="231.61" width="270.66" height="87.715" ry="43.858" style="paint-order:stroke fill markers"/>
    <circle cx="1531.1" cy="273.56" r="4.4431" style="paint-order:stroke fill markers"/>
   </g>
  </g>
  <g transform="matrix(.33049 0 0 .33049 -120.48 -35.699)" fill="none" stroke="#232323">
   <path d="m133.36 372.17c-0.36096 5e-3 -0.72068 6e-3 -1.0788 4e-3 -13.854-0.0814-32.691-11.833-27.814-10.307 6.7086 2.0992 15.271-10.172 29.147-10.081 13.876 0.0901 29.371 5.1463 29.044 10.245-0.10604 1.6534-1.8805 3.3096-4.7026 4.7901" stroke-width="1.252px"/>
   <g transform="matrix(1.252 0 0 1.252 -1754.4 22.467)" stroke-width="1.5">
    <rect x="1508.3" y="231.61" width="270.66" height="87.715" ry="43.858" style="paint-order:stroke fill markers"/>
    <circle cx="1531.1" cy="273.56" r="4.4431" style="paint-order:stroke fill markers"/>
   </g>
   <g transform="matrix(1.252 0 0 1.252 -1754.4 22.467)" filter="url(#filter1952-4)" stroke-width="1.5">
    <rect x="1508.3" y="231.61" width="270.66" height="87.715" ry="43.858" style="paint-order:stroke fill markers"/>
    <circle cx="1531.1" cy="273.56" r="4.4431" style="paint-order:stroke fill markers"/>
   </g>
  </g>
  <path transform="matrix(.26458 0 0 .26458 -165.57 22.186)" d="m300.46 233.32c-47.912-4.3399-95.826-8.68-128.65-3.0884-32.827 5.5915-50.569 21.115-68.311 36.64" fill="none" stroke="#232323" stroke-width="2"/>
  <path d="m-86.753 84.121c-0.49976-0.10548 0.5143 0.0475 0.5143 0.0475s0.5125 0.36649 0.33603 0.24959-0.35058-0.19165-0.85033-0.29713z" fill="#232323"/>
  <g fill="none" stroke="#232323" stroke-width="2">
   <path transform="matrix(.26458 0 0 .26458 -165.57 22.186)" d="m110.29 247.77c-10.802 14.025-21.605 28.051-18.315 29.815 3.2896 1.7639 20.668-8.733 38.047-19.23"/>
   <path transform="matrix(.21255 .15757 -.15757 .21255 -118.09 49.173)" d="m110.29 247.77c-10.802 14.025-21.605 28.051-19.325 30.403 2.2793 2.3519 17.638-6.9693 32.997-16.291"/>
   <path transform="matrix(.26458 0 0 .26458 -165.57 22.186)" d="m102.32 378.28c6.0739 0.13476 12.148 0.26954 17.466-0.38069s9.875-2.0845 14.38-2.5897c4.505-0.5052 8.9553-0.0815 13.723 0.71866 4.7678 0.8002 9.8487 1.976 14.932 3.1523"/>
   <path transform="matrix(.14079 .22401 -.22401 .14079 -93.125 83.161)" d="m110.29 247.77c-10.802 14.025-21.605 28.051-19.325 30.403 2.2793 2.3519 17.638-6.9693 32.997-16.291"/>
   <path transform="matrix(.26458 0 0 .26458 -165.57 22.186)" d="m106.08 461.29c14.416 4.3123 28.83 8.6245 44.107 20.328 15.277 11.704 31.417 30.801 55.592 39.699 24.175 8.8974 56.383 7.5956 88.59 6.2937"/>
   <path transform="matrix(.078491 .25267 -.25267 .078491 -78.349 119.47)" d="m110.29 247.77c-10.802 14.025-21.605 28.051-19.325 30.403 2.2793 2.3519 17.638-6.9693 32.997-16.291"/>
   <path transform="matrix(.26458 0 0 .26458 -165.57 22.186)" d="m106.45 545.56c16.51 8.1317 33.019 16.263 38.44 33.88 5.421 17.617-0.24656 44.723 2.6881 62.582 2.9346 17.859 14.47 26.471 26.007 35.083"/>
   <path transform="matrix(.0063745 .26451 -.26451 .0063745 -70.93 160.74)" d="m110.29 247.77c-10.802 14.025-21.605 28.051-19.325 30.403 2.2793 2.3519 17.638-6.9693 32.997-16.291"/>
   <path transform="matrix(.26458 0 0 .26458 -165.57 22.186)" d="m94.621 633.53c10.472 12.813 20.945 25.626 23.224 52.731 2.2794 27.105-3.6344 68.501 24.16 94.028 27.794 25.527 89.291 35.181 150.79 44.836"/>
  </g>
 </g>
</svg>
